<?xml version="1.0" encoding="UTF-8" standalone="no"?>
<!DOCTYPE svg PUBLIC "-//W3C//DTD SVG 1.1//EN" "http://www.w3.org/Graphics/SVG/1.1/DTD/svg11.dtd">
<svg width="100%" height="100%" viewBox="0 0 388 67" version="1.1" xmlns="http://www.w3.org/2000/svg" xmlns:xlink="http://www.w3.org/1999/xlink" xml:space="preserve" xmlns:serif="http://www.serif.com/" style="fill-rule:evenodd;clip-rule:evenodd;stroke-linejoin:round;stroke-miterlimit:2;">
    <g transform="matrix(0.189808,0,0,0.0801609,-42.2589,-39.8293)">
        <path d="M545.59,897.506L533.723,897.506C531.588,897.506 530.521,894.722 530.521,889.153L530.521,589.914C530.521,584.345 531.588,581.561 533.723,581.561L545.59,581.561C547.725,581.561 548.792,584.345 548.792,589.914L548.792,745.676L549.357,745.676C550.613,736.831 552.245,728.642 554.254,721.107L590.231,589.914C591.613,584.345 593.622,581.561 596.259,581.561L610.198,581.561C612.835,581.561 613.274,584.673 611.516,590.897L574.786,721.107L616.225,887.679C617.732,894.231 616.978,897.506 613.965,897.506L603.417,897.506C600.026,897.506 597.64,894.722 596.259,889.153L563.673,755.994L548.792,801.691L548.792,889.153C548.792,894.722 547.725,897.506 545.59,897.506Z" style="fill:white;fill-rule:nonzero;"/>
        <path d="M640.335,897.506L626.773,897.506C625.015,897.506 624.387,894.722 624.89,889.153L657.664,589.914C658.292,584.345 659.799,581.561 662.185,581.561L681.021,581.561C683.532,581.561 685.039,584.345 685.542,589.914L718.316,889.153C718.819,894.722 718.128,897.506 716.244,897.506L702.871,897.506C701.741,897.506 700.956,896.933 700.516,895.787C700.077,894.64 699.731,892.429 699.48,889.153L692.323,825.276L650.883,825.276L643.726,889.153C643.223,894.722 642.093,897.506 640.335,897.506ZM671.226,628.731L654.651,785.967L688.744,785.967L671.98,628.731L671.226,628.731Z" style="fill:white;fill-rule:nonzero;"/>
        <path d="M770.115,897.506L758.249,897.506C755.988,897.506 754.858,894.722 754.858,889.153L754.858,628.24C754.858,624.964 754.23,623.326 752.975,623.326L729.241,623.326C726.981,623.326 725.851,620.542 725.851,614.973L725.851,589.914C725.851,584.345 726.981,581.561 729.241,581.561L799.123,581.561C801.383,581.561 802.513,584.345 802.513,589.914L802.513,614.973C802.513,620.542 801.383,623.326 799.123,623.326L775.39,623.326C774.008,623.326 773.318,624.964 773.318,628.24L773.318,889.153C773.318,894.722 772.25,897.506 770.115,897.506Z" style="fill:white;fill-rule:nonzero;"/>
        <path d="M833.781,897.506L821.915,897.506C819.78,897.506 818.712,894.722 818.712,889.153L818.712,589.914C818.712,584.345 819.78,581.561 821.915,581.561L833.781,581.561C835.916,581.561 836.983,584.345 836.983,589.914L836.983,712.754C836.983,716.03 837.737,717.668 839.244,717.668L878.988,717.668C880.244,717.668 880.871,716.03 880.871,712.754L880.871,589.914C880.871,584.345 881.939,581.561 884.074,581.561L896.129,581.561C898.263,581.561 899.331,584.345 899.331,589.914L899.331,889.153C899.331,894.722 898.263,897.506 896.129,897.506L884.074,897.506C881.939,897.506 880.871,894.722 880.871,889.153L880.871,764.839C880.871,761.563 880.244,759.925 878.988,759.925L839.244,759.925C837.737,759.925 836.983,761.563 836.983,764.839L836.983,889.153C836.983,894.722 835.916,897.506 833.781,897.506Z" style="fill:white;fill-rule:nonzero;"/>
        <path d="M933.424,897.506L919.862,897.506C918.104,897.506 917.476,894.722 917.978,889.153L950.753,589.914C951.381,584.345 952.888,581.561 955.274,581.561L974.11,581.561C976.621,581.561 978.128,584.345 978.63,589.914L1011.4,889.153C1011.91,894.722 1011.22,897.506 1009.33,897.506L995.96,897.506C994.829,897.506 994.045,896.933 993.605,895.787C993.166,894.64 992.82,892.429 992.569,889.153L985.411,825.276L943.972,825.276L936.814,889.153C936.312,894.722 935.182,897.506 933.424,897.506ZM964.315,628.731L947.739,785.967L981.833,785.967L965.068,628.731L964.315,628.731Z" style="fill:white;fill-rule:nonzero;"/>
        <path d="M1045.12,897.506L1033.26,897.506C1031.12,897.506 1030.05,894.722 1030.05,889.153L1030.05,589.914C1030.05,584.345 1031.12,581.561 1033.26,581.561L1077.33,581.561C1086.5,581.561 1093.69,588.358 1098.9,601.952C1104.11,615.547 1106.71,634.3 1106.71,658.213L1106.71,699.488C1106.71,737.159 1100.75,760.908 1088.82,770.735L1088.82,772.7L1109.73,887.679C1111.11,894.231 1110.29,897.506 1107.28,897.506L1095.6,897.506C1092.59,897.506 1090.64,894.722 1089.76,889.153L1069.61,776.14L1050.58,776.14C1049.08,776.14 1048.32,777.778 1048.32,781.054L1048.32,889.153C1048.32,894.722 1047.26,897.506 1045.12,897.506ZM1050.4,736.831L1074.32,736.831C1083.61,736.831 1088.26,724.875 1088.26,700.962L1088.26,659.687C1088.26,635.447 1083.61,623.326 1074.32,623.326L1050.4,623.326C1049.01,623.326 1048.32,624.964 1048.32,628.24L1048.32,731.917C1048.32,735.193 1049.01,736.831 1050.4,736.831Z" style="fill:white;fill-rule:nonzero;"/>
        <path d="M1151.36,589.914L1151.36,889.153C1151.36,894.722 1150.29,897.506 1148.15,897.506L1136.29,897.506C1134.15,897.506 1133.09,894.722 1133.09,889.153L1133.09,589.914C1133.09,584.345 1134.15,581.561 1136.29,581.561L1148.15,581.561C1150.29,581.561 1151.36,584.345 1151.36,589.914Z" style="fill:white;fill-rule:nonzero;"/>
        <path d="M1194.68,897.506L1183,897.506C1180.87,897.506 1179.8,894.722 1179.8,889.153L1179.8,589.914C1179.8,584.345 1180.87,581.561 1183,581.561L1193.55,581.561C1195.56,581.561 1196.94,583.362 1197.69,586.966L1243.28,800.708L1244.03,800.708L1244.03,589.914C1244.03,584.345 1245.1,581.561 1247.23,581.561L1258.91,581.561C1261.05,581.561 1262.11,584.345 1262.11,589.914L1262.11,889.153C1262.11,894.722 1261.05,897.506 1258.91,897.506L1248.74,897.506C1246.73,897.506 1245.1,894.886 1243.84,889.645L1198.63,678.359L1197.88,678.359L1197.88,889.153C1197.88,894.722 1196.82,897.506 1194.68,897.506Z" style="fill:white;fill-rule:nonzero;"/>
        <path d="M1296.21,897.506L1282.64,897.506C1280.89,897.506 1280.26,894.722 1280.76,889.153L1313.54,589.914C1314.16,584.345 1315.67,581.561 1318.06,581.561L1336.89,581.561C1339.4,581.561 1340.91,584.345 1341.41,589.914L1374.19,889.153C1374.69,894.722 1374,897.506 1372.12,897.506L1358.74,897.506C1357.61,897.506 1356.83,896.933 1356.39,895.787C1355.95,894.64 1355.6,892.429 1355.35,889.153L1348.19,825.276L1306.75,825.276L1299.6,889.153C1299.09,894.722 1297.96,897.506 1296.21,897.506ZM1327.1,628.731L1310.52,785.967L1344.62,785.967L1327.85,628.731L1327.1,628.731Z" style="fill:white;fill-rule:nonzero;"/>
        <path d="M1520.54,581.561L1541.64,581.561C1543.77,581.561 1544.84,584.345 1544.84,589.914L1544.84,889.153C1544.84,894.722 1543.77,897.506 1541.64,897.506L1529.96,897.506C1527.83,897.506 1526.76,894.722 1526.76,889.153L1526.76,641.015L1526.01,641.015L1501.52,820.854C1500.77,826.095 1499.38,828.716 1497.38,828.716L1485.32,828.716C1483.44,828.716 1482.12,826.095 1481.36,820.854L1456.31,640.524L1455.56,640.524L1455.56,889.153C1455.56,892.429 1455.34,894.64 1454.9,895.787C1454.46,896.933 1453.61,897.506 1452.36,897.506L1440.87,897.506C1438.73,897.506 1437.66,894.722 1437.66,889.153L1437.66,589.914C1437.66,584.345 1438.73,581.561 1440.87,581.561L1461.96,581.561C1463.34,581.561 1464.35,583.362 1464.98,586.966L1490.78,776.631L1491.72,776.631L1517.72,586.966C1517.97,583.362 1518.91,581.561 1520.54,581.561Z" style="fill:white;fill-rule:nonzero;"/>
        <path d="M1578.93,897.506L1565.37,897.506C1563.62,897.506 1562.99,894.722 1563.49,889.153L1596.26,589.914C1596.89,584.345 1598.4,581.561 1600.79,581.561L1619.62,581.561C1622.13,581.561 1623.64,584.345 1624.14,589.914L1656.92,889.153C1657.42,894.722 1656.73,897.506 1654.84,897.506L1641.47,897.506C1640.34,897.506 1639.56,896.933 1639.12,895.787C1638.68,894.64 1638.33,892.429 1638.08,889.153L1630.92,825.276L1589.48,825.276L1582.33,889.153C1581.82,894.722 1580.69,897.506 1578.93,897.506ZM1609.83,628.731L1593.25,785.967L1627.34,785.967L1610.58,628.731L1609.83,628.731Z" style="fill:white;fill-rule:nonzero;"/>
        <path d="M1690.63,897.506L1678.77,897.506C1676.63,897.506 1675.56,894.722 1675.56,889.153L1675.56,589.914C1675.56,584.345 1676.63,581.561 1678.77,581.561L1722.84,581.561C1732.01,581.561 1739.2,588.358 1744.41,601.952C1749.62,615.547 1752.23,634.3 1752.23,658.213L1752.23,699.488C1752.23,737.159 1746.26,760.908 1734.33,770.735L1734.33,772.7L1755.24,887.679C1756.62,894.231 1755.81,897.506 1752.79,897.506L1741.11,897.506C1738.1,897.506 1736.15,894.722 1735.27,889.153L1715.12,776.14L1696.1,776.14C1694.59,776.14 1693.84,777.778 1693.84,781.054L1693.84,889.153C1693.84,894.722 1692.77,897.506 1690.63,897.506ZM1695.91,736.831L1719.83,736.831C1729.12,736.831 1733.77,724.875 1733.77,700.962L1733.77,659.687C1733.77,635.447 1729.12,623.326 1719.83,623.326L1695.91,623.326C1694.53,623.326 1693.84,624.964 1693.84,628.24L1693.84,731.917C1693.84,735.193 1694.53,736.831 1695.91,736.831Z" style="fill:white;fill-rule:nonzero;"/>
        <path d="M1810.81,897.506L1798.94,897.506C1796.68,897.506 1795.55,894.722 1795.55,889.153L1795.55,628.24C1795.55,624.964 1794.92,623.326 1793.67,623.326L1769.93,623.326C1767.67,623.326 1766.54,620.542 1766.54,614.973L1766.54,589.914C1766.54,584.345 1767.67,581.561 1769.93,581.561L1839.81,581.561C1842.07,581.561 1843.2,584.345 1843.2,589.914L1843.2,614.973C1843.2,620.542 1842.07,623.326 1839.81,623.326L1816.08,623.326C1814.7,623.326 1814.01,624.964 1814.01,628.24L1814.01,889.153C1814.01,894.722 1812.94,897.506 1810.81,897.506Z" style="fill:white;fill-rule:nonzero;"/>
        <path d="M1878.62,589.914L1878.62,889.153C1878.62,894.722 1877.55,897.506 1875.41,897.506L1863.55,897.506C1861.41,897.506 1860.35,894.722 1860.35,889.153L1860.35,589.914C1860.35,584.345 1861.41,581.561 1863.55,581.561L1875.41,581.561C1877.55,581.561 1878.62,584.345 1878.62,589.914Z" style="fill:white;fill-rule:nonzero;"/>
        <path d="M1921.94,897.506L1910.26,897.506C1908.13,897.506 1907.06,894.722 1907.06,889.153L1907.06,589.914C1907.06,584.345 1908.13,581.561 1910.26,581.561L1920.81,581.561C1922.82,581.561 1924.2,583.362 1924.95,586.966L1970.54,800.708L1971.29,800.708L1971.29,589.914C1971.29,584.345 1972.36,581.561 1974.49,581.561L1986.17,581.561C1988.31,581.561 1989.37,584.345 1989.37,589.914L1989.37,889.153C1989.37,894.722 1988.31,897.506 1986.17,897.506L1976,897.506C1973.99,897.506 1972.36,894.886 1971.1,889.645L1925.89,678.359L1925.14,678.359L1925.14,889.153C1925.14,894.722 1924.07,897.506 1921.94,897.506Z" style="fill:white;fill-rule:nonzero;"/>
    </g>
    <g transform="matrix(0.969394,0,0,0.631021,-424.211,-377.177)">
        <path d="M499.758,686.564L505.556,686.564C507.531,686.564 508.518,684.876 508.518,681.499L508.518,677.859C508.518,674.518 507.437,672.847 505.276,672.847L499.758,672.847C499.55,672.847 499.446,672.988 499.446,673.269L499.446,686.09C499.446,686.406 499.55,686.564 499.758,686.564ZM499.758,670.525L505.245,670.525C506.221,670.525 506.975,670.086 507.505,669.206C508.035,668.327 508.3,667.078 508.3,665.46L508.3,662.348C508.3,658.971 507.312,657.283 505.338,657.283L499.758,657.283C499.55,657.283 499.446,657.441 499.446,657.758L499.446,670.051C499.446,670.367 499.55,670.525 499.758,670.525ZM497.888,688.253L497.888,655.594C497.888,655.172 497.992,654.961 498.199,654.961L505.463,654.961C506.814,654.961 507.884,655.612 508.674,656.913C509.463,658.215 509.858,660.009 509.858,662.295L509.858,665.513C509.858,668.714 508.965,670.772 507.177,671.686C507.946,671.756 508.622,672.354 509.204,673.48C509.786,674.606 510.077,676.065 510.077,677.859L510.077,681.552C510.077,683.839 509.682,685.632 508.892,686.934C508.102,688.235 507.032,688.886 505.681,688.886L498.199,688.886C497.992,688.886 497.888,688.675 497.888,688.253Z" style="fill:white;fill-rule:nonzero;"/>
        <path d="M527.409,688.886L520.894,688.886C519.543,688.886 518.478,688.218 517.698,686.881C516.919,685.544 516.529,683.715 516.529,681.394L516.529,669.47C516.529,667.149 516.919,665.32 517.698,663.983C518.478,662.647 519.543,661.978 520.894,661.978L523.575,661.978C524.926,661.978 525.996,662.647 526.786,663.983C527.575,665.32 527.97,667.149 527.97,669.47L527.97,676.171C527.97,676.593 527.845,676.804 527.596,676.804L518.369,676.804C518.182,676.804 518.088,676.962 518.088,677.279L518.088,681.341C518.088,682.994 518.338,684.269 518.836,685.166C519.335,686.063 520.062,686.512 521.018,686.512L527.409,686.512C527.638,686.512 527.752,686.705 527.752,687.092L527.752,688.306C527.752,688.692 527.638,688.886 527.409,688.886ZM518.369,674.693L526.131,674.693C526.318,674.693 526.411,674.535 526.411,674.219L526.411,669.523C526.411,667.87 526.162,666.595 525.663,665.698C525.165,664.801 524.437,664.353 523.481,664.353L521.018,664.353C520.062,664.353 519.335,664.801 518.836,665.698C518.338,666.595 518.088,667.87 518.088,669.523L518.088,674.219C518.088,674.535 518.182,674.693 518.369,674.693Z" style="fill:white;fill-rule:nonzero;"/>
        <path d="M535.639,688.886L534.735,688.886C534.527,688.886 534.423,688.675 534.423,688.253L534.423,662.611C534.423,662.189 534.527,661.978 534.735,661.978L535.639,661.978C535.867,661.978 535.982,662.189 535.982,662.611L535.982,664.827L536.106,664.827C536.335,664.089 536.74,663.429 537.322,662.849C537.904,662.269 538.621,661.978 539.473,661.978L540.689,661.978C540.918,661.978 541.032,662.172 541.032,662.559L541.032,663.825C541.032,664.212 540.918,664.388 540.689,664.353L539.224,664.353C538.205,664.353 537.411,664.88 536.839,665.935C536.268,666.991 535.982,668.415 535.982,670.209L535.982,688.253C535.982,688.675 535.867,688.886 535.639,688.886Z" style="fill:white;fill-rule:nonzero;"/>
        <path d="M552.473,688.886L550.478,688.886C549.127,688.886 548.062,688.218 547.282,686.881C546.503,685.544 546.113,683.715 546.113,681.394L546.113,669.47C546.113,667.149 546.503,665.32 547.282,663.983C548.062,662.647 549.127,661.978 550.478,661.978L557.086,661.978C557.294,661.978 557.398,662.189 557.398,662.611L557.398,688.253C557.398,688.675 557.294,688.886 557.086,688.886L556.182,688.886C555.954,688.886 555.839,688.675 555.839,688.253L555.839,686.142L555.715,686.142C555.174,687.971 554.094,688.886 552.473,688.886ZM555.839,681.341L555.839,664.827C555.839,664.511 555.735,664.353 555.528,664.353L550.602,664.353C549.646,664.353 548.919,664.81 548.42,665.724C547.921,666.639 547.672,667.923 547.672,669.576L547.672,681.288C547.672,682.942 547.921,684.225 548.42,685.14C548.919,686.054 549.646,686.512 550.602,686.512L552.628,686.512C553.626,686.512 554.411,686.063 554.982,685.166C555.554,684.269 555.839,682.994 555.839,681.341Z" style="fill:white;fill-rule:nonzero;"/>
        <path d="M565.004,664.353L563.103,664.353C562.874,664.353 562.76,664.177 562.76,663.825L562.76,662.559C562.76,662.172 562.874,661.978 563.103,661.978L565.004,661.978C565.191,661.978 565.285,661.82 565.285,661.503L565.285,657.23C565.285,656.808 565.399,656.597 565.628,656.597L566.532,656.597C566.761,656.597 566.875,656.808 566.875,657.23L566.875,661.503C566.875,661.82 566.968,661.978 567.155,661.978L570.865,661.978C571.094,661.978 571.208,662.172 571.208,662.559L571.208,663.825C571.208,664.177 571.094,664.353 570.865,664.353L567.155,664.353C566.968,664.353 566.875,664.511 566.875,664.827L566.875,681.447C566.875,683.065 567.145,684.313 567.685,685.193C568.226,686.072 568.984,686.512 569.961,686.512L571.177,686.512C571.405,686.512 571.52,686.705 571.52,687.092L571.52,688.306C571.52,688.692 571.405,688.886 571.177,688.886L569.836,688.886C568.465,688.886 567.363,688.235 566.532,686.934C565.701,685.632 565.285,683.839 565.285,681.552L565.285,664.827C565.285,664.511 565.191,664.353 565.004,664.353Z" style="fill:white;fill-rule:nonzero;"/>
        <path d="M583.584,688.886L581.526,688.886C580.196,688.886 579.147,688.218 578.378,686.881C577.609,685.544 577.224,683.715 577.224,681.394L577.224,662.611C577.224,662.189 577.328,661.978 577.536,661.978L578.44,661.978C578.669,661.978 578.783,662.189 578.783,662.611L578.783,681.288C578.783,682.942 579.033,684.225 579.531,685.14C580.03,686.054 580.757,686.512 581.713,686.512L583.74,686.512C584.737,686.512 585.522,686.063 586.093,685.166C586.665,684.269 586.951,682.994 586.951,681.341L586.951,662.611C586.951,662.189 587.065,661.978 587.294,661.978L588.198,661.978C588.405,661.978 588.509,662.189 588.509,662.611L588.509,688.253C588.509,688.675 588.405,688.886 588.198,688.886L587.294,688.886C587.065,688.886 586.951,688.675 586.951,688.253L586.951,686.142L586.826,686.142C586.286,687.971 585.205,688.886 583.584,688.886Z" style="fill:white;fill-rule:nonzero;"/>
        <path d="M596.646,688.886L595.742,688.886C595.534,688.886 595.43,688.675 595.43,688.253L595.43,662.611C595.43,662.189 595.534,661.978 595.742,661.978L596.646,661.978C596.874,661.978 596.989,662.189 596.989,662.611L596.989,664.722L597.113,664.722C597.695,662.893 598.776,661.978 600.355,661.978L602.413,661.978C603.743,661.978 604.792,662.647 605.561,663.983C606.33,665.32 606.715,667.149 606.715,669.47L606.715,688.253C606.715,688.675 606.611,688.886 606.403,688.886L605.499,688.886C605.27,688.886 605.156,688.675 605.156,688.253L605.156,669.576C605.156,667.923 604.907,666.639 604.408,665.724C603.909,664.81 603.182,664.353 602.226,664.353L600.199,664.353C599.202,664.353 598.417,664.801 597.846,665.698C597.274,666.595 596.989,667.87 596.989,669.523L596.989,688.253C596.989,688.675 596.874,688.886 596.646,688.886Z" style="fill:white;fill-rule:nonzero;"/>
        <path d="M619.652,687.356L617.625,687.356C616.295,687.356 615.241,686.688 614.461,685.351C613.682,684.014 613.292,682.203 613.292,679.917L613.292,669.47C613.292,667.149 613.682,665.32 614.461,663.983C615.241,662.647 616.306,661.978 617.657,661.978L624.265,661.978C624.494,661.978 624.608,662.189 624.608,662.611L624.608,688.78C624.608,691.102 624.213,692.931 623.424,694.267C622.634,695.604 621.564,696.272 620.213,696.272L614.539,696.272C614.311,696.272 614.196,696.079 614.196,695.692L614.196,694.426C614.196,694.074 614.311,693.898 614.539,693.898L620.088,693.898C621.044,693.898 621.772,693.45 622.27,692.553C622.769,691.656 623.018,690.363 623.018,688.675L623.018,684.612L622.894,684.612C622.374,686.441 621.294,687.356 619.652,687.356ZM623.018,679.811L623.018,664.827C623.018,664.511 622.925,664.353 622.738,664.353L617.812,664.353C616.856,664.353 616.124,664.801 615.615,665.698C615.106,666.595 614.851,667.887 614.851,669.576L614.851,679.811C614.851,681.464 615.106,682.739 615.615,683.636C616.124,684.533 616.856,684.982 617.812,684.982L619.808,684.982C620.805,684.982 621.59,684.533 622.161,683.636C622.733,682.739 623.018,681.464 623.018,679.811Z" style="fill:white;fill-rule:nonzero;"/>
        <path d="M646.461,686.512L648.83,686.512C650.451,686.512 651.386,685.281 651.636,682.818L646.087,672.055C644.362,672.231 643.5,673.955 643.5,677.226L643.5,681.447C643.5,684.823 644.487,686.512 646.461,686.512ZM648.83,688.886L646.336,688.886C644.985,688.886 643.915,688.235 643.125,686.934C642.336,685.632 641.941,683.839 641.941,681.552L641.941,677.068C641.941,675.309 642.211,673.779 642.751,672.478C643.292,671.176 644.123,670.49 645.245,670.42C644.289,668.45 643.811,666.375 643.811,664.194L643.811,662.295C643.811,660.009 644.211,658.215 645.011,656.913C645.812,655.612 646.887,654.961 648.238,654.961L648.986,654.961C650.337,654.961 651.407,655.612 652.197,656.913C652.987,658.215 653.382,660.009 653.382,662.295L653.382,664.722C653.382,665.144 653.267,665.355 653.039,665.355L652.135,665.355C651.906,665.355 651.792,665.144 651.792,664.722L651.792,662.348C651.792,658.971 650.836,657.283 648.924,657.283L648.331,657.283C647.375,657.283 646.648,657.714 646.149,658.575C645.651,659.437 645.401,660.695 645.401,662.348L645.401,664.194C645.401,665.285 645.5,666.217 645.697,666.991C645.895,667.764 646.243,668.626 646.742,669.576L648.706,673.374L656.156,673.374C656.405,673.374 656.53,673.568 656.53,673.955L656.53,675.221C656.53,675.608 656.405,675.801 656.156,675.801L649.89,675.801L656.343,688.411C656.468,688.728 656.437,688.886 656.25,688.886L655.065,688.886C654.857,688.886 654.68,688.745 654.535,688.464L652.696,684.929C652.114,687.567 650.825,688.886 648.83,688.886Z" style="fill:white;fill-rule:nonzero;"/>
        <path d="M678.165,688.886L677.261,688.886C677.032,688.886 676.918,688.675 676.918,688.253L676.918,657.81C676.918,657.494 676.814,657.335 676.606,657.335L672.086,657.335C671.836,657.335 671.712,657.142 671.712,656.755L671.712,655.542C671.712,655.155 671.836,654.961 672.086,654.961L683.308,654.961C683.558,654.961 683.682,655.155 683.682,655.542L683.682,656.755C683.682,657.142 683.558,657.335 683.308,657.335L678.788,657.335C678.58,657.335 678.476,657.494 678.476,657.81L678.476,688.253C678.476,688.675 678.372,688.886 678.165,688.886Z" style="fill:white;fill-rule:nonzero;"/>
        <path d="M690.042,688.886L689.138,688.886C688.93,688.886 688.826,688.675 688.826,688.253L688.826,662.611C688.826,662.189 688.93,661.978 689.138,661.978L690.042,661.978C690.27,661.978 690.385,662.189 690.385,662.611L690.385,664.827L690.509,664.827C690.738,664.089 691.143,663.429 691.725,662.849C692.307,662.269 693.024,661.978 693.876,661.978L695.092,661.978C695.32,661.978 695.435,662.172 695.435,662.559L695.435,663.825C695.435,664.212 695.32,664.388 695.092,664.353L693.627,664.353C692.608,664.353 691.813,664.88 691.242,665.935C690.67,666.991 690.385,668.415 690.385,670.209L690.385,688.253C690.385,688.675 690.27,688.886 690.042,688.886Z" style="fill:white;fill-rule:nonzero;"/>
        <path d="M706.875,688.886L704.88,688.886C703.529,688.886 702.464,688.218 701.685,686.881C700.906,685.544 700.516,683.715 700.516,681.394L700.516,669.47C700.516,667.149 700.906,665.32 701.685,663.983C702.464,662.647 703.529,661.978 704.88,661.978L711.489,661.978C711.697,661.978 711.801,662.189 711.801,662.611L711.801,688.253C711.801,688.675 711.697,688.886 711.489,688.886L710.585,688.886C710.357,688.886 710.242,688.675 710.242,688.253L710.242,686.142L710.118,686.142C709.577,687.971 708.496,688.886 706.875,688.886ZM710.242,681.341L710.242,664.827C710.242,664.511 710.138,664.353 709.93,664.353L705.005,664.353C704.049,664.353 703.322,664.81 702.823,665.724C702.324,666.639 702.075,667.923 702.075,669.576L702.075,681.288C702.075,682.942 702.324,684.225 702.823,685.14C703.322,686.054 704.049,686.512 705.005,686.512L707.031,686.512C708.029,686.512 708.813,686.063 709.385,685.166C709.956,684.269 710.242,682.994 710.242,681.341Z" style="fill:white;fill-rule:nonzero;"/>
        <path d="M718.877,657.547L718.877,652.482C718.877,652.095 718.981,651.901 719.189,651.901L720.124,651.901C720.332,651.901 720.436,652.095 720.436,652.482L720.436,657.547C720.436,657.969 720.332,658.18 720.124,658.18L719.189,658.18C718.981,658.18 718.877,657.969 718.877,657.547ZM718.877,688.253L718.877,662.611C718.877,662.189 718.981,661.978 719.189,661.978L720.093,661.978C720.322,661.978 720.436,662.189 720.436,662.611L720.436,688.253C720.436,688.675 720.332,688.886 720.124,688.886L719.189,688.886C718.981,688.886 718.877,688.675 718.877,688.253Z" style="fill:white;fill-rule:nonzero;"/>
        <path d="M728.728,688.886L727.824,688.886C727.616,688.886 727.512,688.675 727.512,688.253L727.512,662.611C727.512,662.189 727.616,661.978 727.824,661.978L728.728,661.978C728.957,661.978 729.071,662.189 729.071,662.611L729.071,664.722L729.196,664.722C729.778,662.893 730.858,661.978 732.438,661.978L734.495,661.978C735.825,661.978 736.875,662.647 737.644,663.983C738.413,665.32 738.797,667.149 738.797,669.47L738.797,688.253C738.797,688.675 738.693,688.886 738.485,688.886L737.581,688.886C737.353,688.886 737.239,688.675 737.239,688.253L737.239,669.576C737.239,667.923 736.989,666.639 736.49,665.724C735.992,664.81 735.264,664.353 734.308,664.353L732.282,664.353C731.284,664.353 730.5,664.801 729.928,665.698C729.357,666.595 729.071,667.87 729.071,669.523L729.071,688.253C729.071,688.675 728.957,688.886 728.728,688.886Z" style="fill:white;fill-rule:nonzero;"/>
        <path d="M745.718,657.547L745.718,652.482C745.718,652.095 745.822,651.901 746.029,651.901L746.965,651.901C747.173,651.901 747.276,652.095 747.276,652.482L747.276,657.547C747.276,657.969 747.173,658.18 746.965,658.18L746.029,658.18C745.822,658.18 745.718,657.969 745.718,657.547ZM745.718,688.253L745.718,662.611C745.718,662.189 745.822,661.978 746.029,661.978L746.934,661.978C747.162,661.978 747.276,662.189 747.276,662.611L747.276,688.253C747.276,688.675 747.173,688.886 746.965,688.886L746.029,688.886C745.822,688.886 745.718,688.675 745.718,688.253Z" style="fill:white;fill-rule:nonzero;"/>
        <path d="M755.569,688.886L754.665,688.886C754.457,688.886 754.353,688.675 754.353,688.253L754.353,662.611C754.353,662.189 754.457,661.978 754.665,661.978L755.569,661.978C755.797,661.978 755.912,662.189 755.912,662.611L755.912,664.722L756.036,664.722C756.618,662.893 757.699,661.978 759.278,661.978L761.336,661.978C762.666,661.978 763.715,662.647 764.484,663.983C765.253,665.32 765.638,667.149 765.638,669.47L765.638,688.253C765.638,688.675 765.534,688.886 765.326,688.886L764.422,688.886C764.193,688.886 764.079,688.675 764.079,688.253L764.079,669.576C764.079,667.923 763.83,666.639 763.331,665.724C762.832,664.81 762.105,664.353 761.149,664.353L759.122,664.353C758.125,664.353 757.34,664.801 756.769,665.698C756.197,666.595 755.912,667.87 755.912,669.523L755.912,688.253C755.912,688.675 755.797,688.886 755.569,688.886Z" style="fill:white;fill-rule:nonzero;"/>
        <path d="M778.575,687.356L776.548,687.356C775.218,687.356 774.164,686.688 773.384,685.351C772.605,684.014 772.215,682.203 772.215,679.917L772.215,669.47C772.215,667.149 772.605,665.32 773.384,663.983C774.164,662.647 775.229,661.978 776.58,661.978L783.188,661.978C783.417,661.978 783.531,662.189 783.531,662.611L783.531,688.78C783.531,691.102 783.136,692.931 782.347,694.267C781.557,695.604 780.487,696.272 779.136,696.272L773.462,696.272C773.234,696.272 773.119,696.079 773.119,695.692L773.119,694.426C773.119,694.074 773.234,693.898 773.462,693.898L779.011,693.898C779.967,693.898 780.695,693.45 781.193,692.553C781.692,691.656 781.941,690.363 781.941,688.675L781.941,684.612L781.817,684.612C781.297,686.441 780.217,687.356 778.575,687.356ZM781.941,679.811L781.941,664.827C781.941,664.511 781.848,664.353 781.661,664.353L776.735,664.353C775.779,664.353 775.047,664.801 774.538,665.698C774.029,666.595 773.774,667.887 773.774,669.576L773.774,679.811C773.774,681.464 774.029,682.739 774.538,683.636C775.047,684.533 775.779,684.982 776.735,684.982L778.731,684.982C779.728,684.982 780.513,684.533 781.084,683.636C781.656,682.739 781.941,681.464 781.941,679.811Z" style="fill:white;fill-rule:nonzero;"/>
    </g>
    <g transform="matrix(0.715045,0,0,0.78776,58.4381,6.78909)">
        <rect x="-9.129" y="-14.114" width="281.04" height="80.681" style="fill:none;fill-rule:nonzero;"/>
    </g>
</svg>
